#!OML:ASF X:\für Bonn\!DataBase\2005_08_10_Bjorn_Final\c3d\bjorn.ASF
:FULLY-SPECIFIED
:DEGREES
297
root 12.4509 19.1982 -0.0928349 -491.099 86.8706 -495.602
lowerback 6.77181 2.8421 4.92344
upperback 10.9978 4.50035 -0.176886
thorax 8.22975 2.89165 -2.85496
lowerneck 0.942187 -4.33503 6.30172
upperneck 18.4852 -4.9033 -3.87119
head 5.13618 -1.96084 -2.42559
rclavicle 1.0138e-014 -8.94531e-015
rhumerus -22.7957 -5.53846 -81.7173
rradius 21.8487
rwrist 4.79611
rhand -18.8275 14.8443
rfingers 7.12502
rthumb 7.47168 -15.0037
lclavicle 1.0138e-014 -8.94531e-015
lhumerus -34.0057 -38.7676 91.2165
lradius 34.167
lwrist -9.30692
lhand -21.4143 -9.00378
lfingers 7.12502
lthumb 4.97435 20.9178
rfemur -7.74244 -4.32686 11.5063
rtibia 34.9312
rfoot -7.29686 21.2297
rtoes -11.6283
lfemur -19.6603 8.59868 -17.6495
ltibia 37.3626
lfoot -14.1233 -6.47228
ltoes -12.6481
298
root 12.4917 19.2545 -0.0945149 -488.012 86.7101 -492.65
lowerback 6.18617 2.8822 5.06688
upperback 10.619 4.48813 -0.212339
thorax 8.15747 2.86916 -2.95236
lowerneck 1.30013 -4.30133 6.368
upperneck 18.6057 -4.81075 -3.89479
head 5.11611 -1.90072 -2.43455
rclavicle -3.86636e-014 5.96354e-015
rhumerus -23.6778 -5.36406 -81.8407
rradius 22.0535
rwrist 4.50088
rhand -18.6874 14.8033
rfingers 7.12502
rthumb 7.60688 -15.0399
lclavicle -3.86636e-014 5.96354e-015
lhumerus -34.8047 -38.7636 91.5347
lradius 34.4347
lwrist -9.1276
lhand -21.2921 -8.9708
lfingers 7.12502
lthumb 5.0923 20.948
rfemur -7.21514 -4.40471 11.7595
rtibia 33.7928
rfoot -6.51179 21.0722
rtoes -11.045
lfemur -19.0798 8.62012 -17.358
ltibia 36.2643
lfoot -13.8672 -6.60386
ltoes -12.4689
299
root 12.5308 19.3028 -0.0958071 -485.795 86.5683 -490.571
lowerback 5.58799 2.91819 5.16359
upperback 10.2568 4.47249 -0.272149
thorax 8.11053 2.8442 -3.04801
lowerneck 1.89642 -4.24887 6.42807
upperneck 18.4233 -4.70866 -3.77131
head 4.96855 -1.83472 -2.38537
rclavicle -2.15681e-014 8.54774e-015
rhumerus -24.5399 -5.08196 -82.0281
rradius 22.3275
rwrist 3.98788
rhand -18.5247 14.7466
rfingers 7.12502
rthumb 7.76391 -15.0908
lclavicle -2.15681e-014 8.54774e-015
lhumerus -35.4828 -38.6925 91.7606
lradius 34.6625
lwrist -9.01482
lhand -21.1299 -8.9843
lfingers 7.12502
lthumb 5.24895 20.9307
rfemur -6.74077 -4.46643 11.9629
rtibia 32.7471
rfoot -5.67826 20.9407
rtoes -10.1239
lfemur -18.5555 8.6189 -17.114
ltibia 35.26
lfoot -13.6328 -6.75134
ltoes -12.2756
300
root 12.5713 19.3438 -0.0977723 -484.376 86.4953 -489.317
lowerback 4.94141 2.96577 5.18914
upperback 9.90337 4.47219 -0.3637
thorax 8.10087 2.82406 -3.13366
lowerneck 2.39049 -4.18942 6.53756
upperneck 18.2897 -4.60076 -3.67483
head 4.85191 -1.76461 -2.35669
rclavicle 3.67752e-015 -2.94201e-014
rhumerus -25.439 -4.89613 -82.1957
rradius 22.6749
rwrist 3.56178
rhand -18.3353 14.6593
rfingers 7.12502
rthumb 7.9467 -15.1713
lclavicle 3.67752e-015 -2.94201e-014
lhumerus -36.1395 -38.7291 91.9855
lradius 34.9344
lwrist -8.8632
lhand -20.9545 -8.91022
lfingers 7.12502
lthumb 5.41832 21.0005
rfemur -6.33066 -4.52229 12.0679
rtibia 31.8013
rfoot -4.95404 20.8187
rtoes -9.21846
lfemur -18.0994 8.60567 -16.9708
ltibia 34.338
lfoot -13.4558 -6.86046
ltoes -11.9619
301
root 12.6105 19.3755 -0.0992409 -484.189 86.5153 -489.344
lowerback 4.26923 3.01519 5.0717
upperback 9.52958 4.47474 -0.480591
thorax 8.07395 2.79456 -3.16615
lowerneck 2.88517 -4.13731 6.59293
upperneck 18.1466 -4.50598 -3.53944
head 4.73449 -1.70281 -2.30787
rclavicle 6.4605e-016 4.17448e-015
rhumerus -26.3459 -4.64593 -82.3779
rradius 23.0517
rwrist 3.06508
rhand -18.1132 14.5341
rfingers 7.12502
rthumb 8.16113 -15.2883
lclavicle 6.4605e-016 4.17448e-015
lhumerus -36.7758 -38.7355 92.1935
lradius 35.209
lwrist -8.77494
lhand -20.6896 -8.81087
lfingers 7.12502
lthumb 5.67405 21.0932
rfemur -6.01747 -4.599 12.0363
rtibia 30.9537
rfoot -4.29333 20.7579
rtoes -8.0597
lfemur -17.7552 8.67956 -16.9802
ltibia 33.4973
lfoot -13.284 -7.05971
ltoes -11.6823
302
root 12.6508 19.4004 -0.10087 -485.136 86.6147 -490.534
lowerback 3.54879 3.04794 4.80973
upperback 9.1682 4.45733 -0.595515
thorax 8.07453 2.74609 -3.11366
lowerneck 3.24211 -4.05617 6.62159
upperneck 18.1067 -4.37155 -3.46058
head 4.67238 -1.62541 -2.27673
rclavicle 6.49777e-014 -2.80286e-014
rhumerus -27.207 -4.40979 -82.4981
rradius 23.4321
rwrist 2.65733
rhand -17.7159 14.3933
rfingers 7.12502
rthumb 8.54456 -15.4138
lclavicle 6.49777e-014 -2.80286e-014
lhumerus -37.375 -38.6477 92.4033
lradius 35.4974
lwrist -8.83357
lhand -20.4376 -8.62769
lfingers 7.12502
lthumb 5.91732 21.2697
rfemur -5.76014 -4.70366 11.8811
rtibia 30.1828
rfoot -3.72778 20.7042
rtoes -6.92458
lfemur -17.4674 8.70973 -17.1063
ltibia 32.729
lfoot -13.115 -7.28725
ltoes -10.9444
